<?xml version="1.0" encoding="UTF-8"?>
<svg id="Layer_1" data-name="Layer 1" xmlns="http://www.w3.org/2000/svg" viewBox="0 0 188 86.33">
  <defs>
    <style>
      .cls-1 {
        fill: #fff;
      }
    </style>
  </defs>
  <path class="cls-1" d="m29.41,72.09L15.81,18.01v58.59c0,3.24-.72,5.67-2.17,7.3-1.45,1.62-3.37,2.43-5.76,2.43s-4.21-.8-5.67-2.4c-1.47-1.6-2.2-4.04-2.2-7.32V9.44C0,5.73.96,3.23,2.89,1.94c1.93-1.29,4.54-1.94,7.82-1.94h5.33c3.2,0,5.53.29,6.98.87s2.52,1.62,3.21,3.13c.7,1.51,1.49,3.96,2.37,7.35l12.33,46.49,12.33-46.49c.89-3.4,1.68-5.85,2.37-7.35.69-1.51,1.77-2.55,3.21-3.13s3.77-.87,6.98-.87h5.33c3.28,0,5.89.65,7.82,1.94,1.93,1.29,2.9,3.79,2.9,7.5v67.16c0,3.24-.72,5.67-2.17,7.3-1.45,1.62-3.39,2.43-5.82,2.43-2.28,0-4.15-.81-5.62-2.43-1.47-1.62-2.2-4.05-2.2-7.3V18.01l-13.61,54.08c-.89,3.51-1.61,6.09-2.17,7.73-.56,1.64-1.59,3.14-3.1,4.49s-3.59,2.03-6.25,2.03c-2.01,0-3.71-.43-5.1-1.3s-2.47-1.98-3.24-3.33c-.77-1.35-1.38-2.85-1.82-4.49-.44-1.64-.9-3.35-1.36-5.12Z"/>
  <path class="cls-1" d="m151,55.35v21.02c0,3.32-.75,5.81-2.26,7.47-1.51,1.66-3.49,2.49-5.96,2.49s-4.33-.83-5.82-2.49c-1.49-1.66-2.23-4.15-2.23-7.47v-25.19c0-3.97-.14-7.06-.41-9.26-.27-2.2-1-4-2.2-5.41-1.2-1.41-3.09-2.11-5.67-2.11-5.17,0-8.58,1.78-10.22,5.33-1.64,3.55-2.46,8.65-2.46,15.29v21.36c0,3.28-.74,5.76-2.23,7.44-1.49,1.68-3.44,2.52-5.88,2.52s-4.35-.84-5.88-2.52c-1.53-1.68-2.29-4.16-2.29-7.44V31.15c0-2.97.68-5.23,2.06-6.77,1.37-1.54,3.17-2.32,5.41-2.32s3.97.72,5.41,2.17c1.45,1.45,2.17,3.45,2.17,5.99v1.51c2.74-3.28,5.67-5.69,8.8-7.24,3.13-1.54,6.6-2.32,10.42-2.32s7.39.79,10.25,2.37c2.86,1.58,5.21,3.98,7.06,7.18,2.66-3.24,5.52-5.64,8.57-7.21,3.05-1.56,6.43-2.35,10.13-2.35,4.32,0,8.05.85,11.18,2.55,3.13,1.7,5.46,4.13,7,7.3,1.35,2.86,2.03,7.35,2.03,13.49v30.86c0,3.32-.75,5.81-2.26,7.47-1.5,1.66-3.49,2.49-5.96,2.49s-4.35-.84-5.88-2.52c-1.53-1.68-2.29-4.16-2.29-7.44v-26.58c0-3.4-.14-6.12-.43-8.16-.29-2.05-1.07-3.76-2.34-5.15s-3.2-2.08-5.79-2.08c-2.08,0-4.06.62-5.93,1.85-1.87,1.24-3.33,2.89-4.37,4.98-1.16,2.66-1.74,7.37-1.74,14.13Z"/>
</svg>