<?xml version="1.0" encoding="UTF-8"?>
<svg id="Layer_1" data-name="Layer 1" xmlns="http://www.w3.org/2000/svg" viewBox="0 0 502 110.88">
  <defs>
    <style>
      .cls-1 {
        fill: #fff;
      }
    </style>
  </defs>
  <path class="cls-1" d="m133.59,22.41l-63.7,51.9C37.81,98.3,15.31,110.29,2.4,110.29c-1.6,0-2.4-.88-2.4-2.63,0-2.29,1.33-3.77,3.99-4.45,9.72-2.35,17.24-4.97,22.56-7.85,8.39-4.32,25.96-16.94,52.72-37.87,12.11-9.29,29.55-24.07,52.32-44.34,8.52-8.76,14.64-13.15,18.37-13.15,7.45,0,11.18,2.36,11.18,7.08,0,6.03-7.52,18.55-22.56,37.55,29.02-26.21,49.05-39.32,60.1-39.32,3.73,0,7.12,1.15,10.18,3.44,3.06,2.29,4.59,5.21,4.59,8.75,0,5.24-3.59,12.91-10.78,23C229.57,14.42,250.73,1.38,266.18,1.38c8.92,0,13.38,3.54,13.38,10.62,0,9.18-10.92,24.77-32.75,46.79-21.83,22.02-32.75,35.26-32.75,39.71,0,3.41,2.33,5.14,6.99,5.21,4.66.07,6.99,1.15,6.99,3.24,0,2.62-3.89,3.93-11.67,3.93-10.46,0-15.69-4.52-15.69-13.56,0-10.22,9.52-25.98,28.55-47.28,19.04-21.3,28.55-33.19,28.55-35.68,0-1.57-1-2.36-3-2.36-7.99,0-25.43,12.39-52.32,37.16-22.23,20.45-38.61,37.03-49.12,49.74-6.39,7.86-11.12,11.8-14.18,11.8-5.19,0-7.79-2.36-7.79-7.08s10.45-18.74,31.35-41.68c20.9-22.93,31.35-37.09,31.35-42.46,0-2.36-1.33-3.54-3.99-3.54-6.92,0-22.7,11.4-47.32,34.21-21.17,19.66-36.08,34.99-44.73,46-6.79,8.65-12.71,12.98-17.77,12.98-4.53,0-6.79-1.97-6.79-5.9,0-4.98,9.25-18.81,27.76-41.48l32.35-39.32Z"/>
  <path class="cls-1" d="m356.03,22.41l-63.7,51.9c-32.08,23.98-54.58,35.98-67.49,35.98-1.6,0-2.4-.88-2.4-2.63,0-2.29,1.33-3.77,3.99-4.45,9.72-2.35,17.24-4.97,22.56-7.85,8.39-4.32,25.96-16.94,52.72-37.87,12.11-9.29,29.55-24.07,52.32-44.34,8.52-8.76,14.64-13.15,18.37-13.15,7.45,0,11.18,2.36,11.18,7.08,0,6.03-7.52,18.55-22.56,37.55,29.02-26.21,49.05-39.32,60.1-39.32,3.73,0,7.12,1.15,10.18,3.44,3.06,2.29,4.59,5.21,4.59,8.75,0,5.24-3.59,12.91-10.78,23C452.01,14.42,473.18,1.38,488.62,1.38c8.92,0,13.38,3.54,13.38,10.62,0,9.18-10.92,24.77-32.75,46.79-21.83,22.02-32.75,35.26-32.75,39.71,0,3.41,2.33,5.14,6.99,5.21,4.66.07,6.99,1.15,6.99,3.24,0,2.62-3.89,3.93-11.67,3.93-10.46,0-15.69-4.52-15.69-13.56,0-10.22,9.52-25.98,28.55-47.28,19.04-21.3,28.55-33.19,28.55-35.68,0-1.57-1-2.36-3-2.36-7.99,0-25.43,12.39-52.32,37.16-22.23,20.45-38.61,37.03-49.12,49.74-6.39,7.86-11.12,11.8-14.18,11.8-5.19,0-7.79-2.36-7.79-7.08s10.45-18.74,31.35-41.68c20.9-22.93,31.35-37.09,31.35-42.46,0-2.36-1.33-3.54-3.99-3.54-6.92,0-22.7,11.4-47.32,34.21-21.17,19.66-36.08,34.99-44.73,46-6.79,8.65-12.71,12.98-17.77,12.98-4.53,0-6.79-1.97-6.79-5.9,0-4.98,9.25-18.81,27.76-41.48l32.35-39.32Z"/>
</svg>